<mxfile host="app.diagrams.net" modified="2023-08-22T02:29:24.160Z" agent="Mozilla/5.0 (Windows NT 10.0; Win64; x64) AppleWebKit/537.36 (KHTML, like Gecko) Chrome/106.0.0.0 Safari/537.36" version="21.6.8" etag="Pv5hgiyhS7S0EYZcZwlP" type="github">
  <diagram name="第 1 页" id="8To4klWjPucWDl2x4zmb">
    <mxGraphModel>
      <root>
        <mxCell id="0" />
        <mxCell id="1" parent="0" />
      </root>
    </mxGraphModel>
  </diagram>
</mxfile>
